# xmcd CD database file
#
# Track frame offsets:
#	183
#	17620
#	36970
#	61400
#
# Disc length: 1005 seconds
#
# Revision: 5
# Processed by: cddbd v1.5.1PL0 Copyright (c) Steve Scherf et al.
# Submitted via: CDex 1.51
#
DISCID=2b03eb04
DTITLE=Sheryl Crow - A Change Would Do You Good
DYEAR=1996
DGENRE=Country
TTITLE0=A Change Would Do You Good
TTITLE1=Everyday Is A Winding Road
TTITLE2=If It Makes You Happy
TTITLE3=Hard To Make A Stand
EXTD=YEAR: 1996
EXTT0=
EXTT1=
EXTT2=
EXTT3=
PLAYORDER=
